<svg width="46" height="30" viewBox="0 0 46 30" fill="none" xmlns="http://www.w3.org/2000/svg">
<path d="M9.49219 16.2578C9.07031 16.5156 8.64844 16.7617 8.22656 16.9961C7.875 17.1836 7.5 17.3828 7.10156 17.5938C6.72656 17.8047 6.41016 17.9688 6.15234 18.0859C6.10547 20.5234 6.04688 22.3984 5.97656 23.7109C5.92969 25.0234 5.89453 25.9844 5.87109 26.5938C5.82422 27.3203 5.77734 27.7305 5.73047 27.8242C5.68359 27.8242 5.54297 27.7305 5.30859 27.543C5.07422 27.332 4.81641 27.0859 4.53516 26.8047C4.27734 26.5234 4.03125 26.2422 3.79688 25.9609C3.58594 25.6797 3.45703 25.4688 3.41016 25.3281C3.38672 25.0234 3.32812 24.1445 3.23438 22.6914C3.1875 22.0586 3.14062 21.2734 3.09375 20.3359C3.04688 19.3984 2.98828 18.2617 2.91797 16.9258C2.84766 15.5898 2.76562 14.0195 2.67188 12.2148C2.60156 10.4102 2.51953 8.33594 2.42578 5.99219C2.00391 5.96875 1.65234 5.95703 1.37109 5.95703C1.11328 5.95703 0.914062 5.96875 0.773438 5.99219C0.632812 5.99219 0.527344 5.99219 0.457031 5.99219C0.386719 5.96875 0.328125 5.91016 0.28125 5.81641C0.1875 5.62891 0.117188 5.3125 0.0703125 4.86719C0.0234375 4.39844 0 3.95312 0 3.53125C0 3.0625 0.0585938 2.59375 0.175781 2.125C0.316406 1.65625 0.480469 1.36328 0.667969 1.24609C0.738281 1.19922 0.914062 1.1875 1.19531 1.21094C1.5 1.23437 1.85156 1.28125 2.25 1.35156C2.64844 1.42188 3.08203 1.50391 3.55078 1.59766C4.01953 1.69141 4.46484 1.78516 4.88672 1.87891C5.30859 1.97266 5.67188 2.06641 5.97656 2.16016C6.30469 2.23047 6.53906 2.27734 6.67969 2.30078C6.91406 2.34766 7.34766 2.48828 7.98047 2.72266C8.61328 2.93359 9.28125 3.20312 9.98438 3.53125C10.7109 3.83594 11.3906 4.17578 12.0234 4.55078C12.6797 4.90234 13.1602 5.25391 13.4648 5.60547C13.582 5.74609 13.6875 6.14453 13.7812 6.80078C13.8984 7.45703 13.9805 8.17188 14.0273 8.94531C14.0977 9.69531 14.1211 10.4219 14.0977 11.125C14.0977 11.8047 14.0391 12.25 13.9219 12.4609C13.8281 12.6016 13.6523 12.8242 13.3945 13.1289C13.1367 13.4336 12.8086 13.7734 12.4102 14.1484C12.0352 14.5 11.6016 14.8633 11.1094 15.2383C10.6172 15.6133 10.0781 15.9531 9.49219 16.2578ZM6.25781 15.5195C6.46875 15.4023 6.72656 15.1797 7.03125 14.8516C7.35938 14.5 7.69922 14.1133 8.05078 13.6914C8.40234 13.2461 8.75391 12.7891 9.10547 12.3203C9.45703 11.8281 9.77344 11.3711 10.0547 10.9492C10.3594 10.5273 10.5938 10.1641 10.7578 9.85938C10.9453 9.53125 11.0391 9.32031 11.0391 9.22656C11.0391 9.08594 10.9336 8.91016 10.7227 8.69922C10.5117 8.46484 10.207 8.23047 9.80859 7.99609C9.43359 7.76172 8.96484 7.53906 8.40234 7.32812C7.86328 7.09375 7.26562 6.89453 6.60938 6.73047L6.25781 15.5195ZM18 21.1797C18.0703 21.3672 18.1055 21.6133 18.1055 21.918C18.1055 22.1992 18.0703 22.5039 18 22.832C17.9297 23.1367 17.8359 23.4414 17.7188 23.7461C17.625 24.0273 17.5195 24.2617 17.4023 24.4492C17.3086 24.5898 17.1797 24.707 17.0156 24.8008C16.8516 24.8945 16.6758 24.9648 16.4883 25.0117C16.3008 25.0352 16.125 25.0469 15.9609 25.0469C15.7969 25.0469 15.668 25.0469 15.5742 25.0469C15.4336 25.0234 15.2812 24.918 15.1172 24.7305C14.9766 24.543 14.8477 24.3203 14.7305 24.0625C14.6367 23.7812 14.5664 23.4883 14.5195 23.1836C14.4727 22.8555 14.4844 22.5508 14.5547 22.2695C14.625 21.9883 14.8242 21.7422 15.1523 21.5312C15.4805 21.3203 15.832 21.1562 16.207 21.0391C16.6055 20.9219 16.9805 20.875 17.332 20.8984C17.6836 20.8984 17.9062 20.9922 18 21.1797ZM41.1328 18.6133C41.1797 18.6836 41.168 18.918 41.0977 19.3164C41.0508 19.7148 40.9688 20.1484 40.8516 20.6172C40.7578 21.0859 40.6523 21.5312 40.5352 21.9531C40.4414 22.3516 40.3594 22.5859 40.2891 22.6562H39.9375C39.8672 22.6562 39.7969 22.6445 39.7266 22.6211C39.8438 23.7461 39.9375 24.6484 40.0078 25.3281C40.0781 26.0078 40.1133 26.3828 40.1133 26.4531C40.1133 26.6172 40.0312 26.8516 39.8672 27.1562C39.7266 27.4609 39.5625 27.7422 39.375 28C39.1875 28.2578 38.9883 28.457 38.7773 28.5977C38.5898 28.7617 38.4609 28.7734 38.3906 28.6328C38.2734 28.4219 38.0273 27.7891 37.6523 26.7344C37.2773 25.6797 36.8555 24.2383 36.3867 22.4102C35.918 22.3633 35.4258 22.3164 34.9102 22.2695C34.418 22.2227 33.9141 22.1758 33.3984 22.1289C32.8828 22.082 32.3672 22.0234 31.8516 21.9531C31.3594 21.8594 30.8789 21.7773 30.4102 21.707C30.1758 22.7383 29.9414 23.7109 29.707 24.625C29.4961 25.5391 29.2852 26.3359 29.0742 27.0156C28.8867 27.6953 28.7227 28.2344 28.582 28.6328C28.4414 29.0312 28.3359 29.2305 28.2656 29.2305C28.0781 29.2305 27.8906 29.1133 27.7031 28.8789C27.5156 28.6445 27.3398 28.3633 27.1758 28.0352C27.0352 27.707 26.918 27.3672 26.8242 27.0156C26.7305 26.6641 26.6836 26.3711 26.6836 26.1367C26.7305 25.5977 26.7891 25.0352 26.8594 24.4492C26.9531 23.8633 27.0234 23.3242 27.0703 22.832C27.1406 22.2461 27.2109 21.6719 27.2812 21.1094H27.1406C27.0469 21.0625 26.918 20.957 26.7539 20.793C26.5898 20.6289 26.4258 20.4648 26.2617 20.3008C26.0977 20.1133 25.957 19.9375 25.8398 19.7734C25.7227 19.5859 25.6641 19.4453 25.6641 19.3516C25.6641 19.3047 25.8281 19.2578 26.1562 19.2109C26.5078 19.1641 26.9648 19.1172 27.5273 19.0703C27.7148 17.6641 27.9141 16.1992 28.125 14.6758C28.3359 13.1523 28.5469 11.7227 28.7578 10.3867C28.9688 9.05078 29.168 7.89062 29.3555 6.90625C29.5664 5.89844 29.7422 5.20703 29.8828 4.83203C30.1172 4.19922 30.5273 3.63672 31.1133 3.14453C31.6992 2.62891 32.3086 2.20703 32.9414 1.87891C33.5977 1.52734 34.2188 1.25781 34.8047 1.07031C35.3906 0.882812 35.8242 0.789062 36.1055 0.789062C36.2227 0.789062 36.3516 1.05859 36.4922 1.59766C36.6562 2.11328 36.8203 2.81641 36.9844 3.70703C37.1719 4.59766 37.3594 5.64062 37.5469 6.83594C37.7578 8.00781 37.957 9.25 38.1445 10.5625C38.332 11.875 38.5078 13.2227 38.6719 14.6055C38.8594 15.9648 39.0352 17.2656 39.1992 18.5078C40.3711 18.5078 41.0156 18.543 41.1328 18.6133ZM31.0781 18.8242C31.8281 18.7773 32.5781 18.7422 33.3281 18.7188C34.0781 18.6953 34.8164 18.6602 35.543 18.6133C35.3555 17.6992 35.1445 16.6797 34.9102 15.5547C34.7227 14.5938 34.5 13.4688 34.2422 12.1797C33.9844 10.8906 33.7266 9.47266 33.4688 7.92578C33.1875 9.30859 32.9062 10.6562 32.625 11.9688C32.3438 13.2578 32.0859 14.418 31.8516 15.4492C31.5938 16.6445 31.3359 17.7695 31.0781 18.8242ZM45.2109 21.1797C45.2812 21.3672 45.3164 21.6133 45.3164 21.918C45.3164 22.1992 45.2812 22.5039 45.2109 22.832C45.1406 23.1367 45.0469 23.4414 44.9297 23.7461C44.8359 24.0273 44.7305 24.2617 44.6133 24.4492C44.5195 24.5898 44.3906 24.707 44.2266 24.8008C44.0625 24.8945 43.8867 24.9648 43.6992 25.0117C43.5117 25.0352 43.3359 25.0469 43.1719 25.0469C43.0078 25.0469 42.8789 25.0469 42.7852 25.0469C42.6445 25.0234 42.4922 24.918 42.3281 24.7305C42.1875 24.543 42.0586 24.3203 41.9414 24.0625C41.8477 23.7812 41.7773 23.4883 41.7305 23.1836C41.6836 22.8555 41.6953 22.5508 41.7656 22.2695C41.8359 21.9883 42.0352 21.7422 42.3633 21.5312C42.6914 21.3203 43.043 21.1562 43.418 21.0391C43.8164 20.9219 44.1914 20.875 44.543 20.8984C44.8945 20.8984 45.1172 20.9922 45.2109 21.1797Z" fill="#3C0174"/>
</svg>
